<svg xmlns="http://www.w3.org/2000/svg" viewBox="0 0 92 29.32"><defs><style>.cls-1{fill:#fff;}</style></defs><g id="Layer_2" data-name="Layer 2"><g id="Layer_1-2" data-name="Layer 1"><path class="cls-1" d="M8.36,10.23a46.67,46.67,0,0,0-2.56-7A33,33,0,0,0,.15,1.9a35.76,35.76,0,0,0,0,6.58A10,10,0,0,1,8.36,10.23Z"/><path class="cls-1" d="M10.28,29.29A53.18,53.18,0,0,0,8.81,11.93c-2.95-1.74-6.47-1.3-8.37-.87.87,5.83,3.32,13.21,9.8,18.26Z"/><path class="cls-1" d="M9.83,4.84c4.09,13.21,1.53,21.94.66,24.27,1.43-1.26,8.49-7.91,9.3-16.85A30.71,30.71,0,0,0,9.83,4.84Z"/><path class="cls-1" d="M28.73,2.93a1.57,1.57,0,0,1-1.07-.39,1.37,1.37,0,0,1-.44-1.08,1.35,1.35,0,0,1,.45-1,1.6,1.6,0,0,1,2.09,0,1.33,1.33,0,0,1,.45,1.09,1.38,1.38,0,0,1-.44,1.08A1.51,1.51,0,0,1,28.73,2.93ZM30.21,6v8.65A1.91,1.91,0,0,1,29.78,16a1.39,1.39,0,0,1-1.08.46A1.36,1.36,0,0,1,27.63,16a2,2,0,0,1-.41-1.35V6.1a1.92,1.92,0,0,1,.41-1.33,1.37,1.37,0,0,1,1.07-.45,1.41,1.41,0,0,1,1.08.45A1.7,1.7,0,0,1,30.21,6Z"/><path class="cls-1" d="M35.12,6v.36A5.31,5.31,0,0,1,36.84,4.8,4.7,4.7,0,0,1,39,4.32a4.31,4.31,0,0,1,2.11.51A3.27,3.27,0,0,1,42.5,6.29a3.42,3.42,0,0,1,.39,1.18A12.28,12.28,0,0,1,43,9.09v5.57A2,2,0,0,1,42.56,16a1.34,1.34,0,0,1-1.06.46A1.4,1.4,0,0,1,40.41,16,2,2,0,0,1,40,14.66v-5a4.9,4.9,0,0,0-.41-2.26A1.67,1.67,0,0,0,38,6.63a2.41,2.41,0,0,0-1.46.48,2.73,2.73,0,0,0-1,1.3,9.8,9.8,0,0,0-.21,2.5v3.75A1.93,1.93,0,0,1,34.88,16a1.39,1.39,0,0,1-1.09.46A1.37,1.37,0,0,1,32.73,16a2,2,0,0,1-.42-1.35V6a1.87,1.87,0,0,1,.38-1.27,1.27,1.27,0,0,1,1-.42,1.41,1.41,0,0,1,.71.18,1.39,1.39,0,0,1,.51.56A2.08,2.08,0,0,1,35.12,6Z"/><path class="cls-1" d="M47.77,6v.36A5.44,5.44,0,0,1,49.5,4.8a4.63,4.63,0,0,1,2.15-.48,4.35,4.35,0,0,1,2.12.51,3.32,3.32,0,0,1,1.39,1.46,3.41,3.41,0,0,1,.38,1.18,12.06,12.06,0,0,1,.09,1.62v5.57A2,2,0,0,1,55.22,16a1.35,1.35,0,0,1-1.07.46A1.38,1.38,0,0,1,53.07,16a2,2,0,0,1-.42-1.35v-5a5,5,0,0,0-.41-2.26,1.67,1.67,0,0,0-1.64-.78,2.43,2.43,0,0,0-1.46.48,2.72,2.72,0,0,0-1,1.3,9.23,9.23,0,0,0-.22,2.5v3.75A1.93,1.93,0,0,1,47.54,16a1.41,1.41,0,0,1-1.09.46A1.35,1.35,0,0,1,45.39,16,2,2,0,0,1,45,14.66V6a1.87,1.87,0,0,1,.37-1.27,1.3,1.3,0,0,1,1-.42,1.41,1.41,0,0,1,.71.18,1.32,1.32,0,0,1,.51.56A1.94,1.94,0,0,1,47.77,6Z"/><path class="cls-1" d="M68.91,10.4a7,7,0,0,1-.42,2.46,5.3,5.3,0,0,1-3.09,3.19,6.82,6.82,0,0,1-2.46.43A6.47,6.47,0,0,1,60.5,16a5.39,5.39,0,0,1-1.88-1.25,5.59,5.59,0,0,1-1.21-1.93A7.13,7.13,0,0,1,57,10.4a7.07,7.07,0,0,1,.42-2.49A5.17,5.17,0,0,1,60.5,4.75a7.19,7.19,0,0,1,4.9,0A5.52,5.52,0,0,1,67.3,6a5.34,5.34,0,0,1,1.2,1.93A7.23,7.23,0,0,1,68.91,10.4Zm-3,0a4.48,4.48,0,0,0-.81-2.85,2.59,2.59,0,0,0-2.16-1A2.71,2.71,0,0,0,61.39,7a3,3,0,0,0-1,1.35A5.47,5.47,0,0,0,60,10.4a5.4,5.4,0,0,0,.36,2,3,3,0,0,0,1,1.34,2.64,2.64,0,0,0,1.56.46,2.59,2.59,0,0,0,2.16-1A4.45,4.45,0,0,0,65.91,10.4Z"/><path class="cls-1" d="M72.19,6.18,74.61,13l2.61-7.09a4.06,4.06,0,0,1,.6-1.21,1.13,1.13,0,0,1,.9-.35,1.33,1.33,0,0,1,1,.38,1.23,1.23,0,0,1,.4.89,2.24,2.24,0,0,1-.07.46c0,.17-.11.34-.17.49l-.21.53-2.87,7.12-.32.78a4,4,0,0,1-.42.8,1.63,1.63,0,0,1-1.42.71,1.64,1.64,0,0,1-1-.29,1.94,1.94,0,0,1-.56-.64c-.12-.23-.33-.68-.61-1.36l-2.85-7c-.07-.17-.13-.35-.2-.52s-.13-.36-.18-.54a1.78,1.78,0,0,1-.07-.47A1.12,1.12,0,0,1,69.32,5a1.41,1.41,0,0,1,.51-.49,1.38,1.38,0,0,1,.71-.19,1.15,1.15,0,0,1,1,.42A7.63,7.63,0,0,1,72.19,6.18Z"/><path class="cls-1" d="M88.6,14.79a9.19,9.19,0,0,1-2.1,1.27,5.85,5.85,0,0,1-2.27.42,4.21,4.21,0,0,1-2-.46,3.26,3.26,0,0,1-1.34-1.23,3.16,3.16,0,0,1-.48-1.69A3,3,0,0,1,81.17,11a3.89,3.89,0,0,1,2.14-1.16l1.41-.3c.76-.15,1.4-.29,1.94-.42s1.12-.28,1.74-.46a3.09,3.09,0,0,0-.47-1.74,2.14,2.14,0,0,0-1.75-.55,3.64,3.64,0,0,0-1.71.31,2.75,2.75,0,0,0-1,1c-.27.42-.47.7-.58.84a1,1,0,0,1-.73.2,1.28,1.28,0,0,1-.87-.32,1.06,1.06,0,0,1-.37-.83A2.56,2.56,0,0,1,81.49,6a4,4,0,0,1,1.74-1.22,7.87,7.87,0,0,1,3-.49,8.31,8.31,0,0,1,3.1.47,2.93,2.93,0,0,1,1.6,1.47,6.52,6.52,0,0,1,.46,2.68v1.78c0,.49,0,1,0,1.64a5.85,5.85,0,0,0,.28,1.75,6.12,6.12,0,0,1,.28,1.18,1.1,1.1,0,0,1-.44.84,1.44,1.44,0,0,1-1,.38,1.33,1.33,0,0,1-.9-.43A6.6,6.6,0,0,1,88.6,14.79Zm-.2-4.33a14.74,14.74,0,0,1-1.91.51c-.83.18-1.41.31-1.73.4a2.29,2.29,0,0,0-.92.49,1.24,1.24,0,0,0-.44,1A1.52,1.52,0,0,0,83.91,14a1.91,1.91,0,0,0,1.35.48,3.51,3.51,0,0,0,1.64-.39,2.63,2.63,0,0,0,1.1-1,4.63,4.63,0,0,0,.4-2.24Z"/><path class="cls-1" d="M33.16,25.88a2.45,2.45,0,0,1-.4,1.42,2.55,2.55,0,0,1-1.2.9,5.38,5.38,0,0,1-1.92.3,4.71,4.71,0,0,1-1.85-.33,2.59,2.59,0,0,1-1.13-.83,1.63,1.63,0,0,1-.37-1,.81.81,0,0,1,.23-.57.85.85,0,0,1,.6-.23.69.69,0,0,1,.48.15,1.8,1.8,0,0,1,.33.44,2.28,2.28,0,0,0,.73.8,2.32,2.32,0,0,0,1.18.26,1.67,1.67,0,0,0,1-.27.74.74,0,0,0,.39-.61.85.85,0,0,0-.4-.77,4.86,4.86,0,0,0-1.32-.46,10.44,10.44,0,0,1-1.68-.54,2.74,2.74,0,0,1-1-.75,1.69,1.69,0,0,1-.39-1.13,2,2,0,0,1,.36-1.14,2.49,2.49,0,0,1,1.06-.86,4.11,4.11,0,0,1,1.69-.32,5.48,5.48,0,0,1,1.4.17,3.26,3.26,0,0,1,1,.43,2,2,0,0,1,.63.6,1.15,1.15,0,0,1,.22.65.75.75,0,0,1-.23.56.89.89,0,0,1-.66.22.83.83,0,0,1-.52-.17,3.78,3.78,0,0,1-.5-.53,1.81,1.81,0,0,0-2.27-.42.69.69,0,0,0-.36.58.65.65,0,0,0,.26.52,2.35,2.35,0,0,0,.71.33c.3.09.71.2,1.24.32a6.44,6.44,0,0,1,1.52.55,2.59,2.59,0,0,1,.9.74A1.67,1.67,0,0,1,33.16,25.88Z"/><path class="cls-1" d="M43.84,26a1.7,1.7,0,0,1-.22.8,2.93,2.93,0,0,1-.68.81,3.55,3.55,0,0,1-1.16.62,4.79,4.79,0,0,1-1.57.24,3.82,3.82,0,0,1-2.9-1.09,4,4,0,0,1-1-2.9,4.76,4.76,0,0,1,.48-2.18,3.42,3.42,0,0,1,1.38-1.46,4.21,4.21,0,0,1,2.16-.52,4.07,4.07,0,0,1,1.42.23,3.58,3.58,0,0,1,1.1.58,2.88,2.88,0,0,1,.69.77,1.52,1.52,0,0,1,.24.76.8.8,0,0,1-.27.61.88.88,0,0,1-.65.25.63.63,0,0,1-.41-.13A2.24,2.24,0,0,1,42,23a3,3,0,0,0-.77-.84,1.68,1.68,0,0,0-1-.28,1.75,1.75,0,0,0-1.44.69,3,3,0,0,0-.54,1.9,3.79,3.79,0,0,0,.14,1,2.46,2.46,0,0,0,.4.81,1.72,1.72,0,0,0,.64.5,2,2,0,0,0,1.86-.1,2.55,2.55,0,0,0,.76-.85,1.78,1.78,0,0,1,.39-.53.74.74,0,0,1,.52-.19.75.75,0,0,1,.61.28A.88.88,0,0,1,43.84,26Z"/><path class="cls-1" d="M49,18.59v3a4.24,4.24,0,0,1,.75-.69,2.83,2.83,0,0,1,.8-.39,3.57,3.57,0,0,1,.95-.13,2.7,2.7,0,0,1,1.35.33,2.28,2.28,0,0,1,.93.94,2.32,2.32,0,0,1,.29.8,7.66,7.66,0,0,1,.07,1v3.84a1.29,1.29,0,0,1-.28.91.9.9,0,0,1-.73.31c-.66,0-1-.41-1-1.22V23.9a3.11,3.11,0,0,0-.28-1.48,1.13,1.13,0,0,0-1.09-.52,1.6,1.6,0,0,0-1,.31,1.85,1.85,0,0,0-.64.83A5.27,5.27,0,0,0,49,24.63v2.65a1.35,1.35,0,0,1-.27.91.91.91,0,0,1-.74.31c-.66,0-1-.41-1-1.22V18.59a1.34,1.34,0,0,1,.26-.91.91.91,0,0,1,.73-.31.94.94,0,0,1,.74.31A1.35,1.35,0,0,1,49,18.59Z"/><path class="cls-1" d="M65.41,24.43a4.93,4.93,0,0,1-.28,1.65,3.77,3.77,0,0,1-.81,1.3,3.51,3.51,0,0,1-1.26.83,4.53,4.53,0,0,1-1.65.29,4.44,4.44,0,0,1-1.64-.29,3.67,3.67,0,0,1-1.26-.84,3.86,3.86,0,0,1-.81-1.3,5.12,5.12,0,0,1,0-3.31,3.56,3.56,0,0,1,.8-1.29,3.46,3.46,0,0,1,1.26-.83,4.52,4.52,0,0,1,1.64-.29,4.4,4.4,0,0,1,1.65.3,3.63,3.63,0,0,1,1.27.83,3.69,3.69,0,0,1,.8,1.3A4.8,4.8,0,0,1,65.41,24.43Zm-2,0a3.06,3.06,0,0,0-.53-1.91,1.75,1.75,0,0,0-1.45-.68,1.82,1.82,0,0,0-1,.3,1.88,1.88,0,0,0-.69.9,3.71,3.71,0,0,0-.24,1.39,3.61,3.61,0,0,0,.24,1.37,2,2,0,0,0,.68.9,1.89,1.89,0,0,0,2.5-.38A3,3,0,0,0,63.39,24.43Z"/><path class="cls-1" d="M76.29,24.43A4.69,4.69,0,0,1,76,26.08a3.62,3.62,0,0,1-.81,1.3,3.51,3.51,0,0,1-1.26.83,4.53,4.53,0,0,1-1.65.29,4.48,4.48,0,0,1-1.64-.29,3.87,3.87,0,0,1-1.26-.84,3.69,3.69,0,0,1-.8-1.3,4.52,4.52,0,0,1-.28-1.64,4.72,4.72,0,0,1,.28-1.67,3.7,3.7,0,0,1,.8-1.29,3.64,3.64,0,0,1,1.26-.83,4.56,4.56,0,0,1,1.64-.29,4.33,4.33,0,0,1,1.65.3,3.55,3.55,0,0,1,1.27.83,3.69,3.69,0,0,1,.8,1.3A4.57,4.57,0,0,1,76.29,24.43Zm-2,0a3,3,0,0,0-.54-1.91,1.73,1.73,0,0,0-1.45-.68,1.84,1.84,0,0,0-1,.3,2,2,0,0,0-.69.9,3.71,3.71,0,0,0-.24,1.39,3.61,3.61,0,0,0,.24,1.37,2,2,0,0,0,.68.9,1.78,1.78,0,0,0,1.05.31,1.74,1.74,0,0,0,1.45-.69A3,3,0,0,0,74.28,24.43Z"/><path class="cls-1" d="M79.67,27.28V18.59a1.35,1.35,0,0,1,.27-.91.93.93,0,0,1,.72-.31,1,1,0,0,1,.74.31,1.34,1.34,0,0,1,.27.91v8.69a1.32,1.32,0,0,1-.28.92,1,1,0,0,1-.73.3.89.89,0,0,1-.71-.31A1.34,1.34,0,0,1,79.67,27.28Z"/><path class="cls-1" d="M92,25.88a2.52,2.52,0,0,1-.4,1.42,2.55,2.55,0,0,1-1.2.9,5.38,5.38,0,0,1-1.92.3,4.71,4.71,0,0,1-1.85-.33,2.59,2.59,0,0,1-1.13-.83,1.63,1.63,0,0,1-.37-1,.81.81,0,0,1,.23-.57.85.85,0,0,1,.6-.23.69.69,0,0,1,.48.15,1.8,1.8,0,0,1,.33.44,2.28,2.28,0,0,0,.73.8,2.3,2.3,0,0,0,1.17.26,1.68,1.68,0,0,0,1-.27.74.74,0,0,0,.39-.61.85.85,0,0,0-.4-.77,4.86,4.86,0,0,0-1.32-.46,10.44,10.44,0,0,1-1.68-.54,2.74,2.74,0,0,1-1-.75,1.69,1.69,0,0,1-.39-1.13,2,2,0,0,1,.36-1.14,2.49,2.49,0,0,1,1.06-.86,4.11,4.11,0,0,1,1.69-.32,5.48,5.48,0,0,1,1.4.17,3.26,3.26,0,0,1,1,.43,2,2,0,0,1,.63.6,1.15,1.15,0,0,1,.22.65.75.75,0,0,1-.23.56.89.89,0,0,1-.66.22.83.83,0,0,1-.52-.17,3.78,3.78,0,0,1-.5-.53,1.81,1.81,0,0,0-2.27-.42.69.69,0,0,0-.36.58.65.65,0,0,0,.26.52,2.35,2.35,0,0,0,.71.33c.3.09.71.2,1.24.32a6.44,6.44,0,0,1,1.52.55,2.47,2.47,0,0,1,.89.74A1.61,1.61,0,0,1,92,25.88Z"/></g></g></svg>